<svg xmlns="http://www.w3.org/2000/svg" xmlns:xlink="http://www.w3.org/1999/xlink" width="130" height="130" viewBox="0 0 130 130">
  <defs>
    <clipPath id="clip-maps_home_work_black_24dp">
      <rect width="130" height="130"/>
    </clipPath>
  </defs>
  <g id="maps_home_work_black_24dp" clip-path="url(#clip-maps_home_work_black_24dp)">
    <rect width="130" height="130" fill="#fff"/>
    <g id="Grupo_4374" data-name="Grupo 4374" transform="translate(-756 -290)">
      <circle id="Elipse_652" data-name="Elipse 652" cx="65" cy="65" r="65" transform="translate(756 290)" fill="#ecf6ff"/>
      <g id="maps_home_work_black_24dp-2" data-name="maps_home_work_black_24dp" transform="translate(785.19 319.19)">
        <g id="Grupo_4103" data-name="Grupo 4103">
          <path id="Trazado_18178" data-name="Trazado 18178" d="M0,0H71.619V71.619H0Z" fill="none"/>
        </g>
        <g id="Grupo_4105" data-name="Grupo 4105" transform="translate(2.984 8.952)">
          <g id="Grupo_4104" data-name="Grupo 4104">
            <path id="Trazado_18179" data-name="Trazado 18179" d="M40.271,18.227,25.351,7.574a5.913,5.913,0,0,0-6.923,0L3.507,18.227A5.956,5.956,0,0,0,1,23.092V46.875a2.993,2.993,0,0,0,2.984,2.984H15.921v-17.9H27.857v17.9H39.794a2.993,2.993,0,0,0,2.984-2.984V23.092A5.956,5.956,0,0,0,40.271,18.227Z" transform="translate(-1 3.855)" fill="#00498a"/>
            <path id="Trazado_18180" data-name="Trazado 18180" d="M42.915,3H15.879A5.871,5.871,0,0,0,10,8.879l.269.269c.239.149.477.269.716.418L25.905,20.218a12.007,12.007,0,0,1,4.6,6.655h6.356v5.968H30.889V38.81h5.968v5.968H30.889V56.714H42.915a5.871,5.871,0,0,0,5.879-5.879V8.879A5.871,5.871,0,0,0,42.915,3ZM36.857,20.9H30.889V14.937h5.968Z" transform="translate(16.857 -3)" fill="#00498a"/>
          </g>
        </g>
      </g>
    </g>
  </g>
</svg>
