<svg xmlns="http://www.w3.org/2000/svg" width="18" height="18" viewBox="0 0 18 18">
  <g id="ico-delete" transform="translate(-10 -5)">
    <rect id="Rectangle_3826" data-name="Rectangle 3826" width="18" height="18" transform="translate(10 5)" fill="rgba(255,255,255,0)"/>
    <path id="Union_13" data-name="Union 13" d="M18120.611,3804.711a1.471,1.471,0,0,1-1.393-1.2,3.762,3.762,0,0,1-.072-.678v-3.918c0-1.383,0-2.766,0-4.15.006-.241-.072-.323-.3-.3a5.332,5.332,0,0,1-.541,0,.264.264,0,0,1-.291-.278v-.082c-.037-.824-.031-.824.783-.824.654,0,1.3-.014,1.961,0a.352.352,0,0,0,.395-.269c.15-.4.318-.787.492-1.178a1.3,1.3,0,0,1,1.246-.823c.92-.018,1.84-.009,2.758,0a1.366,1.366,0,0,1,1.3.874c.17.4.342.782.492,1.178a.3.3,0,0,0,.342.218c.777,0,1.551,0,2.33,0,.363,0,.445.077.463.446a.452.452,0,0,0,.006.086c.014.628-.01.651-.646.651-.578,0-.5-.023-.5.51v7.672a2.312,2.312,0,0,1-.494,1.615,1.3,1.3,0,0,1-1,.459h-3.664Q18122.443,3804.717,18120.611,3804.711Zm-.3-9.869q0,3.8.006,7.612a4.305,4.305,0,0,0,.045.592c.055.373.16.46.541.46h6.7c.451,0,.572-.1.633-.56a2.85,2.85,0,0,0,.014-.341v-7.758c0-.382,0-.387-.4-.387h-7.158C18120.316,3794.459,18120.311,3794.464,18120.311,3794.842Zm2.08-1.67a.328.328,0,0,0,.01.082h3.813c-.123-.3-.232-.537-.318-.787a.382.382,0,0,0-.428-.282c-.537.009-1.078,0-1.615,0C18122.777,3792.189,18122.777,3792.189,18122.391,3793.172Zm-.982,7.954v-4.482c0-.459.063-.523.523-.523.678,0,.691.009.691.7v4.6c0,.355-.1.45-.455.455l-.221,0C18121.416,3801.874,18121.408,3801.794,18121.408,3801.125Zm4.559.027c.006-.728,0-1.456,0-2.189,0-.805,0-1.606.006-2.412,0-.359.076-.432.432-.432.76-.009.76-.009.76.746v4.514c0,.405-.082.487-.473.491l-.2,0C18125.967,3801.873,18125.967,3801.807,18125.967,3801.153Zm-2.262.068v-4.709c.006-.314.074-.387.383-.391.791-.023.791-.023.791.76v4.509c0,.409-.072.482-.477.482h-.17C18123.705,3801.872,18123.705,3801.826,18123.705,3801.221Z" transform="translate(-18105 -3783.999)" fill="#797c82"/>
  </g>
</svg>
