<svg xmlns="http://www.w3.org/2000/svg" width="18" height="18" viewBox="0 0 18 18">
  <g id="ico-editar" transform="translate(-10 -5)">
    <rect id="Rectangle_3824" data-name="Rectangle 3824" width="18" height="18" transform="translate(10 5)" fill="rgba(255,255,255,0)"/>
    <path id="Union_12" data-name="Union 12" d="M18121,3803.444c.014-1,0-2.007.014-3.013a.587.587,0,0,1,.154-.391c2.193-2.212,4.4-4.41,6.6-6.608.064-.064.133-.118.215-.191.951.951,1.879,1.889,2.813,2.826.164.164.318.337.5.487s.164.241,0,.405c-1.225,1.21-2.443,2.435-3.658,3.65-.975.974-1.943,1.952-2.932,2.917a.711.711,0,0,1-.459.2c-.574.009-1.152.009-1.725.009-.41,0-.824,0-1.234,0h-.02C18121.055,3803.735,18120.994,3803.66,18121,3803.444Zm2.17-1.716c0,.223-.014.446,0,.665.006.073.092.2.143.2.391.018.809.091,1.068-.337a.8.8,0,0,1,.188-.187c.158-.132.154-.241,0-.387-.533-.514-1.047-1.038-1.574-1.561a1.8,1.8,0,0,0-.15-.123c-.5.391-.934.792-.66,1.547.246,0,.52.009.793,0h.014C18123.125,3801.541,18123.174,3801.6,18123.17,3801.728Zm5-6.958a.575.575,0,0,0-.2.168l-2.812,2.813c-.5.5-1,.988-1.484,1.5-.059.059-.045.191-.059.287a.821.821,0,0,0,.264-.086c.15-.127.283-.273.424-.41,1.3-1.3,2.6-2.6,3.9-3.9.072-.073.137-.159.254-.3a1.736,1.736,0,0,0-.254-.063A.114.114,0,0,0,18128.168,3794.77Zm3.662,1.365q-1.644-1.659-3.295-3.309c-.018-.018-.027-.046-.021-.036.5-.523.945-1.056,1.461-1.52a.979.979,0,0,1,1.4.054c.688.655,1.352,1.338,2.025,2.007a1.158,1.158,0,0,1,0,1.506c-.428.423-.855.855-1.279,1.288a.22.22,0,0,1-.148.082A.214.214,0,0,1,18131.83,3796.135Z" transform="translate(-18108 -3783)" fill="#72176c"/>
  </g>
</svg>
