<svg id="Componente_3_1" data-name="Componente 3 – 1" xmlns="http://www.w3.org/2000/svg" width="32" height="32" viewBox="0 0 32 32">
  <g id="stars_black_24dp">
    <path id="Trazado_17889" data-name="Trazado 17889" d="M0,0H32V32H0Z" fill="none"/>
    <path id="Trazado_17890" data-name="Trazado 17890" d="M15.32,2A13.333,13.333,0,1,0,28.667,15.333,13.327,13.327,0,0,0,15.32,2Zm9.973,9.547-6.68-.573-2.667-6.28A10.7,10.7,0,0,1,25.293,11.547Zm-6.76,8.347-3.2-1.92-3.187,1.92.84-3.627-2.813-2.44,3.707-.32,1.453-3.427,1.453,3.413,3.707.32-2.813,2.44ZM14.72,4.693l-2.667,6.293L5.36,11.56a10.676,10.676,0,0,1,9.36-6.867ZM4.667,15.333a10.19,10.19,0,0,1,.307-2.48l5.053,4.373L8.547,23.56A10.643,10.643,0,0,1,4.667,15.333Zm5.12,9.093,5.547-3.347,5.547,3.333a10.526,10.526,0,0,1-11.093.013ZM22.12,23.56l-1.48-6.333,5.053-4.373A10.8,10.8,0,0,1,26,15.333,10.685,10.685,0,0,1,22.12,23.56Z" transform="translate(0.667 0.667)" fill="#00498a"/>
  </g>
</svg>
