<svg id="ico-admin-configuraciones" xmlns="http://www.w3.org/2000/svg" width="32" height="32" viewBox="0 0 32 32">
  <g id="Grupo_4187" data-name="Grupo 4187">
    <rect id="Rect치ngulo_3835" data-name="Rect치ngulo 3835" width="32" height="32" fill="none"/>
    <rect id="Rect치ngulo_3836" data-name="Rect치ngulo 3836" width="32" height="32" fill="none"/>
  </g>
  <g id="Grupo_4189" data-name="Grupo 4189" transform="translate(4 4.247)">
    <g id="Grupo_4188" data-name="Grupo 4188">
      <path id="Trazado_18223" data-name="Trazado 18223" d="M21.667,13.605a8.851,8.851,0,0,1,1.333.12V9.045a2.641,2.641,0,0,0-1.6-2.44l-7.333-3.2a2.7,2.7,0,0,0-2.133,0L4.6,6.605A2.669,2.669,0,0,0,3,9.045v4.8A13.617,13.617,0,0,0,13,26.938a12.221,12.221,0,0,0,2.133-.733,7.987,7.987,0,0,1,6.533-12.6Z" transform="translate(-3 -3.185)" fill="#00498a"/>
      <path id="Trazado_18224" data-name="Trazado 18224" d="M18.333,13a5.333,5.333,0,1,0,5.333,5.333A5.332,5.332,0,0,0,18.333,13Zm0,1.84a1.493,1.493,0,1,1-1.493,1.493A1.5,1.5,0,0,1,18.333,14.84Zm0,7.16a3.633,3.633,0,0,1-2.987-1.56c.067-.96,2.013-1.44,2.987-1.44s2.92.48,2.987,1.44A3.633,3.633,0,0,1,18.333,22Z" transform="translate(0.333 0.087)" fill="#00498a"/>
    </g>
  </g>
</svg>
