<svg id="_3p_black_24dp" data-name="3p_black_24dp" xmlns="http://www.w3.org/2000/svg" width="32" height="32" viewBox="0 0 32 32">
  <g id="Grupo_3549" data-name="Grupo 3549">
    <rect id="Rectángulo_3777" data-name="Rectángulo 3777" width="32" height="32" fill="none"/>
  </g>
  <g id="Grupo_3550" data-name="Grupo 3550" transform="translate(2.667 2.667)">
    <path id="Trazado_17909" data-name="Trazado 17909" d="M26,2H4.68A2.675,2.675,0,0,0,2.013,4.667L2,28.667l5.333-5.333H26a2.675,2.675,0,0,0,2.667-2.667v-16A2.675,2.675,0,0,0,26,2Zm0,18.667H6.227l-1.56,1.56V4.667H26Zm-10.667-8A2.667,2.667,0,1,0,12.667,10,2.675,2.675,0,0,0,15.333,12.667Zm5.333,4.573a2.681,2.681,0,0,0-1.627-2.467,9.27,9.27,0,0,0-7.413,0A2.681,2.681,0,0,0,10,17.24V18H20.667Z" transform="translate(-2 -2)" fill="#fff"/>
  </g>
</svg>
