<svg id="inventory_black_24dp" xmlns="http://www.w3.org/2000/svg" width="32" height="32" viewBox="0 0 32 32">
  <g id="Grupo_3356" data-name="Grupo 3356">
    <rect id="Rectángulo_3489" data-name="Rectángulo 3489" width="32" height="32" fill="none"/>
  </g>
  <g id="Grupo_3358" data-name="Grupo 3358" transform="translate(4.035 1.345)">
    <g id="Grupo_3357" data-name="Grupo 3357">
      <path id="Trazado_17788" data-name="Trazado 17788" d="M5.69,6.38H8.38v4.035H21.829V6.38h2.69V13.1h2.69V6.38a2.7,2.7,0,0,0-2.69-2.69H18.9a4.019,4.019,0,0,0-7.585,0H5.69A2.7,2.7,0,0,0,3,6.38V25.209A2.7,2.7,0,0,0,5.69,27.9h8.07v-2.69H5.69ZM15.1,3.69A1.345,1.345,0,1,1,13.76,5.035,1.349,1.349,0,0,1,15.1,3.69Z" transform="translate(-3 -1)" fill="#fff"/>
      <path id="Trazado_17789" data-name="Trazado 17789" d="M24.449,11.5l-7.384,7.4-4.048-4.035L11,16.88l6.066,6.052,9.4-9.415Z" transform="translate(-0.24 2.622)" fill="#fff"/>
    </g>
  </g>
</svg>
