<svg id="event_black_24dp" xmlns="http://www.w3.org/2000/svg" width="20" height="20" viewBox="0 0 20 20">
  <path id="Trazado_17794" data-name="Trazado 17794" d="M0,0H20V20H0Z" fill="none"/>
  <path id="Trazado_17795" data-name="Trazado 17795" d="M16.09,3.667h-.818V2H13.636V3.667H7.091V2H5.454V3.667H4.636A1.644,1.644,0,0,0,3.008,5.333L3,17a1.651,1.651,0,0,0,1.636,1.667H16.09A1.657,1.657,0,0,0,17.727,17V5.333A1.657,1.657,0,0,0,16.09,3.667ZM16.09,17H4.636V8.667H16.09Zm0-10H4.636V5.333H16.09Zm-5.727,4.167h4.091v4.167H10.363Z" transform="translate(-0.363 -0.333)" fill="#00498a"/>
</svg>
