<svg id="language_black_24dp_1_" data-name="language_black_24dp (1)" xmlns="http://www.w3.org/2000/svg" width="20" height="20" viewBox="0 0 20 20">
  <path id="Trazado_17809" data-name="Trazado 17809" d="M0,0H20V20H0Z" fill="none"/>
  <path id="Trazado_17810" data-name="Trazado 17810" d="M9.34,2a7.347,7.347,0,1,0,7.355,7.347A7.344,7.344,0,0,0,9.34,2Zm5.092,4.408H12.264A11.5,11.5,0,0,0,11.25,3.793,5.9,5.9,0,0,1,14.432,6.408ZM9.347,3.5a10.35,10.35,0,0,1,1.4,2.91H7.944A10.35,10.35,0,0,1,9.347,3.5ZM3.661,10.817a5.747,5.747,0,0,1,0-2.939H6.144a12.134,12.134,0,0,0-.1,1.469,12.134,12.134,0,0,0,.1,1.469Zm.6,1.469H6.431A11.5,11.5,0,0,0,7.444,14.9a5.868,5.868,0,0,1-3.181-2.616ZM6.431,6.408H4.263A5.868,5.868,0,0,1,7.444,3.793,11.5,11.5,0,0,0,6.431,6.408ZM9.347,15.2a10.35,10.35,0,0,1-1.4-2.91h2.807A10.35,10.35,0,0,1,9.347,15.2Zm1.719-4.379H7.628a10.81,10.81,0,0,1-.118-1.469,10.716,10.716,0,0,1,.118-1.469h3.439a10.716,10.716,0,0,1,.118,1.469A10.81,10.81,0,0,1,11.067,10.817ZM11.25,14.9a11.5,11.5,0,0,0,1.014-2.616h2.167A5.9,5.9,0,0,1,11.25,14.9Zm1.3-4.085a12.135,12.135,0,0,0,.1-1.469,12.135,12.135,0,0,0-.1-1.469h2.483a5.747,5.747,0,0,1,0,2.939Z" transform="translate(0.653 0.653)" fill="#004998"/>
</svg>
