<svg id="contact_support_black_24dp" xmlns="http://www.w3.org/2000/svg" width="32" height="32" viewBox="0 0 32 32">
  <path id="Trazado_17892" data-name="Trazado 17892" d="M0,0H32V32H0Z" fill="none"/>
  <path id="Trazado_17893" data-name="Trazado 17893" d="M14,31.12v-4.8A12.669,12.669,0,1,1,27.333,13.667c0,6.6-4.587,13.24-11.427,16.533Zm.667-27.453a10,10,0,1,0,0,20h2v3.067c4.853-3.067,8-8.107,8-13.067A10,10,0,0,0,14.667,3.667ZM13.333,19H16v2.667H13.333ZM16,17H13.333c0-4.333,4-4,4-6.667a2.667,2.667,0,1,0-5.333,0H9.333a5.333,5.333,0,0,1,10.667,0C20,13.667,16,14,16,17Z" transform="translate(0.667 0.333)" fill="#00498a"/>
</svg>
