<svg xmlns="http://www.w3.org/2000/svg" xmlns:xlink="http://www.w3.org/1999/xlink" width="16" height="15.998" viewBox="0 0 16 15.998">
  <defs>
    <clipPath id="clip-path">
      <rect id="Rectángulo_3317" data-name="Rectángulo 3317" width="16" height="15.998" fill="#00498a"/>
    </clipPath>
  </defs>
  <g id="Grupo_3184" data-name="Grupo 3184" transform="translate(0 0)">
    <g id="Grupo_3183" data-name="Grupo 3183" transform="translate(0 0)" clip-path="url(#clip-path)">
      <path id="Trazado_17354" data-name="Trazado 17354" d="M3.668.581Q4.845,2.1,6.029,3.617l.03.042a1.513,1.513,0,0,1,.235.492,1.55,1.55,0,0,1-.165,1.164L6.1,5.351a1.451,1.451,0,0,1-.38.4.163.163,0,0,1-.037.025c-.387.277-.767.557-1.147.837a1,1,0,0,0,.152.982A15.267,15.267,0,0,0,6.382,9.614v0l.007,0A15.069,15.069,0,0,0,8.4,11.3a.988.988,0,0,0,.982.155c.285-.395.577-.787.862-1.184a1.485,1.485,0,0,1,.442-.4v0a1.492,1.492,0,0,1,.562-.2l.025,0a1.535,1.535,0,0,1,.577.037l.032.01a1.52,1.52,0,0,1,.5.26v0q1.518,1.181,3.039,2.356a.34.34,0,0,0,.042.042,1.413,1.413,0,0,1,.367.455A1.478,1.478,0,0,1,16,13.45a1.431,1.431,0,0,1-.107.635,1.488,1.488,0,0,1-.367.532,4.514,4.514,0,0,1-.727.547l-.037.02a5.381,5.381,0,0,1-.99.445,8.156,8.156,0,0,1-5.163-.112,13.011,13.011,0,0,1-4.97-3.156A12.9,12.9,0,0,1,.484,7.39,8.09,8.09,0,0,1,.369,2.233a5.025,5.025,0,0,1,.47-1.025v0a4.131,4.131,0,0,1,.542-.73A1.436,1.436,0,0,1,1.914.109l.05-.017A1.431,1.431,0,0,1,2.546,0a1.436,1.436,0,0,1,1.122.58M5.06,4.369h0Q3.871,2.855,2.7,1.333a.2.2,0,0,0-.07-.067l-.017-.01a.238.238,0,0,0-.115-.03.375.375,0,0,0-.1.012l-.02.007a.229.229,0,0,0-.095.07,2.754,2.754,0,0,0-.392.525,3.928,3.928,0,0,0-.355.775,6.936,6.936,0,0,0,.115,4.393A11.7,11.7,0,0,0,4.51,11.491a11.725,11.725,0,0,0,4.48,2.861,6.9,6.9,0,0,0,4.393.112,3.9,3.9,0,0,0,.752-.337l.025-.017a3.022,3.022,0,0,0,.52-.392.193.193,0,0,0,.07-.095l.007,0a.247.247,0,0,0,.012-.117.31.31,0,0,0-.025-.112v0a.354.354,0,0,0-.057-.07l-.025-.015q-1.511-1.181-3.034-2.356v0a.324.324,0,0,0-.082-.042l-.012,0a.336.336,0,0,0-.1,0h-.012a.249.249,0,0,0-.1.035.2.2,0,0,0-.075.075h-.007q-.465.637-.93,1.272a.575.575,0,0,1-.2.19A2.112,2.112,0,0,1,7.7,12.305a16.423,16.423,0,0,1-2.184-1.822v0A16.181,16.181,0,0,1,3.693,8.3,2.117,2.117,0,0,1,3.54,5.888a.561.561,0,0,1,.165-.18c.417-.3.835-.612,1.254-.915L5,4.759a.39.39,0,0,0,.065-.06l.012-.02a.248.248,0,0,0,.03-.1.259.259,0,0,0,0-.107.313.313,0,0,0-.03-.075c-.012-.007-.02-.012-.02-.022" transform="translate(0 0)" fill="#00498a"/>
    </g>
  </g>
</svg>
